<?xml version="1.0" encoding="iso-8859-1"?>
<!-- Uploaded to: SVG Repo, www.svgrepo.com, Generator: SVG Repo Mixer Tools -->
<svg fill="#000000" height="800px" width="800px" version="1.1" id="Layer_1" xmlns="http://www.w3.org/2000/svg" xmlns:xlink="http://www.w3.org/1999/xlink" 
	 viewBox="0 0 512 512" xml:space="preserve">
<g>
	<g>
		<path d="M323.167,7.463c-65.37,0-123.082,33.394-156.991,84.013c7.453-0.748,15.011-1.135,22.658-1.135
			c124.265,0,225.363,101.097,225.363,225.363c0,16.768-1.856,33.108-5.347,48.841C470.024,333.264,512,269.591,512,196.296
			C512,92.173,427.29,7.463,323.167,7.463z M351.938,107.701c-15.893,0-28.775-12.883-28.775-28.775s12.884-28.775,28.775-28.775
			s28.775,12.883,28.775,28.775S367.83,107.701,351.938,107.701z M460.982,208.01c-15.893,0-28.775-12.884-28.775-28.775
			c0-15.891,12.884-28.775,28.775-28.775c15.893,0,28.775,12.883,28.775,28.775S476.873,208.01,460.982,208.01z"/>
	</g>
</g>
<g>
	<g>
		<path d="M188.833,126.87C84.71,126.87,0,211.58,0,315.704s84.71,188.833,188.833,188.833s188.834-84.709,188.834-188.833
			C377.667,211.58,292.957,126.87,188.833,126.87z M162.934,179.235c15.893,0,28.775,12.884,28.775,28.775
			c0,15.893-12.883,28.775-28.775,28.775s-28.775-12.883-28.775-28.775C134.158,192.119,147.042,179.235,162.934,179.235z
			 M69.034,314.43c-15.893,0-28.775-12.883-28.775-28.775c0-15.893,12.884-28.775,28.775-28.775s28.775,12.884,28.775,28.775
			C97.81,301.547,84.927,314.43,69.034,314.43z M153.241,454.643c-15.893,0-28.775-12.884-28.775-28.775
			c0-15.893,12.883-28.775,28.775-28.775s28.775,12.883,28.775,28.775C182.017,441.759,169.133,454.643,153.241,454.643z
			 M184.446,334.522c-15.893,0-28.775-12.884-28.775-28.775s12.883-28.775,28.775-28.775c15.891,0,28.775,12.884,28.775,28.775
			C213.222,321.64,200.338,334.522,184.446,334.522z M313.72,334.522c-15.893,0-28.775-12.884-28.775-28.775
			s12.884-28.775,28.775-28.775c15.893,0,28.775,12.884,28.775,28.775S329.611,334.522,313.72,334.522z"/>
	</g>
</g>
</svg>